<?xml version="1.0" encoding="iso-8859-1"?>
<!-- Generator: Adobe Illustrator 18.0.0, SVG Export Plug-In . SVG Version: 6.00 Build 0)  -->
<!DOCTYPE svg PUBLIC "-//W3C//DTD SVG 1.1//EN" "http://www.w3.org/Graphics/SVG/1.1/DTD/svg11.dtd">
<svg version="1.1" id="Capa_1" xmlns="http://www.w3.org/2000/svg" xmlns:xlink="http://www.w3.org/1999/xlink" x="0px" y="0px"
	 viewBox="0 0 182.686 182.686" style="enable-background:new 0 0 182.686 182.686;" xml:space="preserve">
<g>
	<g>
		<path style="fill-rule:evenodd;clip-rule:evenodd;fill:#C79369;" d="M80.171,64.41c6.315,10.541,17.925,24.328,30.624,32.85
			l-2.41,3.432c-12.892-6.36-28.598-19.559-34.397-27.099C67.063,64.587,73.801,53.776,80.171,64.41z"/>
		<rect x="65.803" y="47.544" style="fill-rule:evenodd;clip-rule:evenodd;fill:#C79369;" width="11.633" height="16.416"/>
		<path style="fill-rule:evenodd;clip-rule:evenodd;fill:#E7B791;" d="M67.725,93.985l-3.99-21.568l2.067-15.183
			c3.808,0.627,7.687,0.606,11.633,0c2.696,1.381,5.354,8.459,4.609,14.371l-2.357,22.378L67.725,93.985z"/>
		
			<ellipse transform="matrix(0.1905 -0.9817 0.9817 0.1905 34.0518 72.9698)" style="fill-rule:evenodd;clip-rule:evenodd;fill:#3c2513;" cx="61.274" cy="15.836" rx="15.362" ry="15.517"/>
		
			<ellipse transform="matrix(0.1905 -0.9817 0.9817 0.1905 28.153 96.6489)" style="fill-rule:evenodd;clip-rule:evenodd;fill:#F1DDCF;" cx="72.683" cy="31.253" rx="15.362" ry="15.517"/>
		
			<ellipse transform="matrix(0.1906 -0.9817 0.9817 0.1906 25.8034 104.6276)" style="fill-rule:evenodd;clip-rule:evenodd;fill:#E7B791;" cx="76.347" cy="36.667" rx="19.555" ry="20.202"/>
		<path style="fill-rule:evenodd;clip-rule:evenodd;fill:#F1DDCF;" d="M76.855,182.491c4.619,0,8.387-1.892,8.387-4.212
			c0-2.32-3.768-4.212-8.387-4.212c-4.619,0-8.387,1.893-8.387,4.212C68.469,180.599,72.236,182.491,76.855,182.491z"/>
		<path style="fill-rule:evenodd;clip-rule:evenodd;fill:#FCE9DC;" d="M72.954,91.522c24.945,0,45.365,30.695,47.061,69.561
			c-12.913,10.176-29.269,16.261-47.061,16.261c-17.793,0-34.147-6.085-47.062-16.261C27.588,122.217,48.009,91.522,72.954,91.522z"
			/>
		<path style="fill-rule:evenodd;clip-rule:evenodd;fill:#F1DDCF;" d="M63.735,72.417c1.433,0.025,11.946-9.161,18.041-6.872
			c0.386,1.98,0.518,4.085,0.269,6.061l-2.334,22.152l-0.023,0.227H67.725L63.735,72.417z"/>
		<path style="fill-rule:evenodd;clip-rule:evenodd;fill:#E7B791;" d="M74.792,65.599c6.626,10.349,18.642,23.783,31.589,31.923
			l-2.308,3.502C90.998,95.05,74.905,82.326,68.886,74.962C61.695,66.167,68.107,55.159,74.792,65.599z"/>
		<path style="fill-rule:evenodd;clip-rule:evenodd;fill:#E7B791;" d="M107.622,95.306c1.35,0.736,1.396,1.604,0.573,2.316
			c2.122,0.828,3.006,3.072,2.434,4.122c-1.113,2.042-4.266,2.471-7.041,0.958c-2.774-1.513-4.121-4.396-3.007-6.438
			C101.694,94.221,104.846,93.793,107.622,95.306z"/>
		<path style="fill-rule:evenodd;clip-rule:evenodd;fill:#3c2513;" d="M93.449,26.48C78.087,41.262,68.885,37.101,62.175,50.437
			c-4.609-4.474-6.946-10.992-5.659-17.62c2.058-10.602,12.605-17.473,23.559-15.347C85.838,18.589,90.563,21.977,93.449,26.48z"/>
		
			<ellipse transform="matrix(-0.0359 -0.9994 0.9994 -0.0359 33.9681 111.1825)" style="fill-rule:evenodd;clip-rule:evenodd;fill:#E7B791;" cx="70.612" cy="39.207" rx="5.761" ry="3.687"/>
		<path style="opacity:0.5;fill-rule:evenodd;clip-rule:evenodd;fill:#F1DDCF;" d="M65.335,0.31
			C50.782,22.769,48.445,57.7,55.598,85.482c-0.188-0.016-0.375-0.031-0.562-0.048C37.315,83.838,21.573,76.31,9.624,65.015
			C13.11,39.048,30.769-4.072,65.335,0.31z"/>
		
			<ellipse transform="matrix(0.1906 -0.9817 0.9817 0.1906 34.7575 121.1927)" style="fill-rule:evenodd;clip-rule:evenodd;fill:#323232;" cx="90.871" cy="39.519" rx="2.467" ry="1.409"/>
		<path style="fill-rule:evenodd;clip-rule:evenodd;fill:#C79369;" d="M92.982,47.952c-3.079-0.631-6.1-1.405-8.037-2.102
			c1.235,2.25,3.241,3.948,5.518,4.974C91.392,49.954,92.237,48.994,92.982,47.952z"/>
		<rect x="137.439" y="82.988" style="fill-rule:evenodd;clip-rule:evenodd;fill:#F1DDCF;" width="10.696" height="9.654"/>
		<g>
			<polygon style="fill-rule:evenodd;clip-rule:evenodd;fill:#F0F0F0;" points="126.951,178.183 128.618,159.225 130.322,146.468 
				130.883,142.216 145.551,144.196 139.099,179.824 			"/>
			<polygon style="fill-rule:evenodd;clip-rule:evenodd;fill:#FFEDEB;" points="130.883,142.216 131.088,142.243 130.322,146.47 
				130.322,146.468 			"/>
		</g>
		<polygon style="fill-rule:evenodd;clip-rule:evenodd;fill:#E0E0E0;" points="127.593,143.564 152.383,143.564 152.707,148.576 
			127.609,148.576 		"/>
		<polygon style="fill-rule:evenodd;clip-rule:evenodd;fill:#FFEDEB;" points="152.602,146.909 148.173,85.157 140.096,86.943 
			128.302,117.656 127.581,146.794 		"/>
		<path style="fill-rule:evenodd;clip-rule:evenodd;fill:#F1DDCF;" d="M138.506,84.18c-1.255,19.334-0.81,28.651-9.455,35.447
			l-0.025-8.282l7.52-20.958l0.895-7.399L138.506,84.18z"/>
		<path style="fill-rule:evenodd;clip-rule:evenodd;fill:#FFEDEB;" d="M138.251,81.833l0.076,12.484l-0.565,1.948l-5.705,18.319
			l-4.351,9.802l1.01-13.641l7.829-20.357l0.601-6.409c0.092-0.974-0.553-4.729-0.553-4.729L138.251,81.833z"/>
		
			<ellipse transform="matrix(-0.9576 0.2882 -0.2882 -0.9576 378.6589 291.0675)" style="fill-rule:evenodd;clip-rule:evenodd;fill:#E0E0E0;" cx="167.905" cy="173.405" rx="4.619" ry="9.197"/>
		<path style="fill-rule:evenodd;clip-rule:evenodd;fill:#F0F0F0;" d="M166.613,171.859l-33.563,10.823l-6.457,0.004l1.084-12.761
			l36.831-5.101C165.367,167.682,165.753,169,166.613,171.859z"/>
		<path style="fill-rule:evenodd;clip-rule:evenodd;fill:#F0F0F0;" d="M135.859,114.946c-8.226-4.174-16.509-9.437-23.252-15.453
			l-2.988,3.496c5.887,6.853,14.411,14.075,22.422,19.765L135.859,114.946z"/>
		<path style="fill-rule:evenodd;clip-rule:evenodd;fill:#F0F0F0;" d="M137.226,99.259c-2.889,5.5-6.969,11.824-11.839,18.034
			l6.919,5.261c5.314-5.029,9.74-9.945,12.253-13.621C151.589,98.649,143.549,87.227,137.226,99.259z"/>
		<path style="fill-rule:evenodd;clip-rule:evenodd;fill:#E7B791;" d="M110.123,95.735c-1.415-0.916-2.276-0.506-2.533,0.659
			c-1.907-1.613-4.533-1.29-5.245-0.19c-1.386,2.142-0.15,5.404,2.76,7.287c2.91,1.883,6.392,1.673,7.777-0.469
			C114.268,100.88,113.033,97.618,110.123,95.735z"/>
		<g>
			<path style="fill-rule:evenodd;clip-rule:evenodd;fill:#3c2513;" d="M163.22,65.02c-12.235-13.301-44.514-8.258-38.738-28.893
				c5.335,7.67,7.976,5.536,17.296,6.598C151.179,43.797,162.071,50.029,163.22,65.02z"/>
			<path style="fill-rule:evenodd;clip-rule:evenodd;fill:#3c2513;" d="M163.706,66.061c-9.851-15.152-42.519-15.551-33.39-34.938
				c3.983,8.452,6.942,6.786,15.957,9.385C155.365,43.131,165.068,51.088,163.706,66.061z"/>
			<g>
				
					<ellipse transform="matrix(0.248 -0.9688 0.9688 0.248 47.7482 188.5202)" style="fill-rule:evenodd;clip-rule:evenodd;fill:#cf9c74;" cx="145.304" cy="63.504" rx="21.443" ry="22.153"/>
				<path style="fill-rule:evenodd;clip-rule:evenodd;fill:#3c2513;" d="M133.137,45.382c1.694,15.755,26.862,28.091,19.749,38.423
					c6.667-2.271,12.042-7.633,13.879-14.806c2.938-11.472-4.29-23.232-16.143-26.267C144.385,41.135,138.111,42.274,133.137,45.382
					z"/>
				
					<ellipse transform="matrix(0.4603 -0.8877 0.8877 0.4603 19.8385 170.0622)" style="fill-rule:evenodd;clip-rule:evenodd;fill:#cf9c74;" cx="149.795" cy="68.714" rx="6.318" ry="4.044"/>
				
					<ellipse transform="matrix(0.248 -0.9688 0.9688 0.248 39.7869 170.2803)" style="fill-rule:evenodd;clip-rule:evenodd;fill:#323232;" cx="129.571" cy="59.513" rx="2.706" ry="1.546"/>
				<path style="fill-rule:evenodd;clip-rule:evenodd;fill:#bf7a43;" d="M123.521,66.881c3.348,0.819,6.704,1.471,8.952,1.69
					c-2.281,1.649-5.066,2.391-7.804,2.339C124.156,69.611,123.771,68.262,123.521,66.881z"/>
			</g>
			<path style="fill-rule:evenodd;clip-rule:evenodd;fill:#3c2513;" d="M128.218,49.183c4.295,2.574,8.176,5.423,12.326,10.874
				c4.563,5.992,22.744-11.629,14.523-15.837C146.847,40.012,136.585,36.942,128.218,49.183z"/>
		</g>
	</g>
</g>
<g>
</g>
<g>
</g>
<g>
</g>
<g>
</g>
<g>
</g>
<g>
</g>
<g>
</g>
<g>
</g>
<g>
</g>
<g>
</g>
<g>
</g>
<g>
</g>
<g>
</g>
<g>
</g>
<g>
</g>
</svg>
